<?xml version="1.0" encoding="iso-8859-1"?>
<!-- Generator: Adobe Illustrator 19.0.0, SVG Export Plug-In . SVG Version: 6.00 Build 0)  -->
<svg version="1.1" id="Layer_1" xmlns="http://www.w3.org/2000/svg" xmlns:xlink="http://www.w3.org/1999/xlink" x="0px" y="0px"
	 viewBox="0 0 268.565 268.565" style="enable-background:new 0 0 268.565 268.565;" xml:space="preserve">
<g>
	<path style="fill:#F59D00;" d="M206.109,171.069l-3.287,3.287l-3.287-3.287c-11.963-11.963-31.374-11.981-43.355,0
		c-11.972,11.972-11.972,31.383,0,43.355c5.156,5.156,41.627,41.627,46.642,46.642c5.012-5.012,41.486-41.486,46.642-46.642
		c11.972-11.972,11.972-31.383,0-43.355C237.492,159.097,218.082,159.097,206.109,171.069z"/>
	<g>
		<path style="fill:#FFD155;" d="M156.181,171.069L156.181,171.069c11.972-11.972,31.383-11.972,43.355,0l3.287,3.287l0.025-0.025
			v-54.177h36.309L124.643,7.5L10.129,120.153h36.309v140.912h50.216v-62.615h51.083
			C145.925,188.831,148.737,178.512,156.181,171.069z"/>
		<polygon style="fill:#FFD155;" points="202.823,261.065 202.848,261.065 202.848,261.04 		"/>
		<g>
			<path style="fill:#FFD155;" d="M152.632,210.158v50.907h50.191C151.186,209.429,154.792,213.281,152.632,210.158z"/>
			<path style="fill:#E87E04;" d="M265.943,192.746c0-28.557-30.27-46.932-55.595-33.942v-31.151h28.809
				c6.701,0,10.03-8.154,5.26-12.847L129.903,2.153c-2.919-2.871-7.601-2.871-10.519,0L4.869,114.807
				c-4.777,4.699-1.432,12.847,5.26,12.847h28.809v133.412c0,4.142,3.358,7.5,7.5,7.5h50.216c4.142,0,7.5-3.358,7.5-7.5v-55.114
				h37.891c0.823,2.236,1.852,4.392,3.086,6.44v48.674c0,4.142,3.358,7.5,7.5,7.5h50.191c0.005,0,0.01-0.001,0.015-0.001
				c0.003,0,0.007,0.001,0.01,0.001c1.787,0,3.593-0.664,5.001-1.933l0,0c0.213-0.192,46.716-46.702,46.918-46.905
				C261.974,212.52,265.943,202.938,265.943,192.746z M96.655,190.951c-4.142,0-7.5,3.358-7.5,7.5v55.114H53.938V120.153
				c0-4.142-3.358-7.5-7.5-7.5H28.448l96.196-94.632l96.195,94.632h-17.991c-4.142,0-7.5,3.358-7.5,7.5v38.669
				c-24.714-12.776-54.332,4.518-55.602,32.128H96.655z M160.132,253.565v-24.558c5.445,5.451,13.464,13.451,24.579,24.558H160.132z
				 M244.161,209.12l-41.338,41.338c-39.168-39.168-41.291-41.231-42.923-43.094c-7.52-9.204-6.755-22.654,1.585-30.992
				c8.904-8.917,23.617-9.131,32.749,0.001l3.287,3.287c2.929,2.929,7.677,2.928,10.606,0l3.287-3.287
				c9.03-9.028,23.72-9.027,32.748,0C253.211,185.422,253.211,200.07,244.161,209.12z"/>
		</g>
	</g>
</g>
<g>
</g>
<g>
</g>
<g>
</g>
<g>
</g>
<g>
</g>
<g>
</g>
<g>
</g>
<g>
</g>
<g>
</g>
<g>
</g>
<g>
</g>
<g>
</g>
<g>
</g>
<g>
</g>
<g>
</g>
</svg>
